<svg width="39" height="47" viewBox="0 0 39 47" fill="none" xmlns="http://www.w3.org/2000/svg">
<mask id="mask0_83_55" style="mask-type:luminance" maskUnits="userSpaceOnUse" x="0" y="0" width="39" height="47">
<path d="M38.3825 0.497314H0.324341V46.5578H38.3825V0.497314Z" fill="white"/>
</mask>
<g mask="url(#mask0_83_55)">
<path d="M7.48846 40.4922L30.9145 24.0187L7.48846 7.54517" stroke="white" stroke-width="2.5" stroke-linecap="round" stroke-linejoin="round"/>
<path d="M8.25081 14.0062C11.2922 14.0062 13.7552 11.5722 13.7552 8.56658C13.7552 5.561 11.2922 3.12695 8.25081 3.12695C5.20943 3.12695 2.7464 5.55428 2.7464 8.55985C2.7464 11.5654 5.20943 13.9995 8.25081 13.9995" fill="black"/>
<path d="M8.25081 14.0062C11.2922 14.0062 13.7552 11.5722 13.7552 8.56658C13.7552 5.561 11.2922 3.12695 8.25081 3.12695C5.20943 3.12695 2.7464 5.55428 2.7464 8.55985C2.7464 11.5654 5.20943 13.9995 8.25081 13.9995V14.0062Z" fill="black" stroke="white" stroke-width="2.5" stroke-linecap="round" stroke-linejoin="round"/>
<path d="M8.25075 44.8082C11.2921 44.8082 13.7552 42.3742 13.7552 39.3686C13.7552 36.363 11.2921 33.929 8.25075 33.929C5.20937 33.929 2.74634 36.363 2.74634 39.3686C2.74634 42.3742 5.20937 44.8082 8.25075 44.8082Z" fill="black"/>
<path d="M8.25075 44.8082C11.2921 44.8082 13.7552 42.3742 13.7552 39.3686C13.7552 36.363 11.2921 33.929 8.25075 33.929C5.20937 33.929 2.74634 36.363 2.74634 39.3686C2.74634 42.3742 5.20937 44.8082 8.25075 44.8082Z" fill="black" stroke="white" stroke-width="2.5" stroke-linecap="round" stroke-linejoin="round"/>
<path d="M31.146 29.4637C34.1874 29.4637 36.6504 27.0297 36.6504 24.0241C36.6504 21.0185 34.1874 18.5845 31.146 18.5845C28.1046 18.5845 25.6416 21.0185 25.6416 24.0241C25.6416 27.0297 28.1046 29.4637 31.146 29.4637Z" fill="black"/>
<path d="M31.146 29.4637C34.1874 29.4637 36.6504 27.0297 36.6504 24.0241C36.6504 21.0185 34.1874 18.5845 31.146 18.5845C28.1046 18.5845 25.6416 21.0185 25.6416 24.0241C25.6416 27.0297 28.1046 29.4637 31.146 29.4637Z" fill="black" stroke="white" stroke-width="2.5" stroke-linecap="round" stroke-linejoin="round"/>
</g>
</svg>
