<svg width="22" height="77" viewBox="0 0 22 77" fill="none" xmlns="http://www.w3.org/2000/svg">
<mask id="path-1-inside-1_88_63" fill="white">
<path d="M16.8652 61.253C15.5594 61.103 12.328 60.6175 11.7304 57.6605C11.1328 54.6859 11 53 11 53C11 53 10.8672 54.6859 10.2586 57.6694C9.66097 60.6263 6.42958 61.103 5.12374 61.2619C3.81791 61.4119 0 61.6414 0 61.6414C0 61.6414 3.81791 62.0563 5.12374 62.3299C6.42958 62.6035 9.6499 63.0184 10.1147 68.0408C10.6016 73.3192 11 77 11 77C11 77 11.3873 73.3192 11.8853 68.0408C12.3501 63.0272 15.5704 62.6035 16.8763 62.3299C18.1821 62.0563 22 61.6414 22 61.6414C22 61.6414 18.1821 61.4119 16.8763 61.253"/>
</mask>
<path d="M16.8652 61.253C15.5594 61.103 12.328 60.6175 11.7304 57.6605C11.1328 54.6859 11 53 11 53C11 53 10.8672 54.6859 10.2586 57.6694C9.66097 60.6263 6.42958 61.103 5.12374 61.2619C3.81791 61.4119 0 61.6414 0 61.6414C0 61.6414 3.81791 62.0563 5.12374 62.3299C6.42958 62.6035 9.6499 63.0184 10.1147 68.0408C10.6016 73.3192 11 77 11 77C11 77 11.3873 73.3192 11.8853 68.0408C12.3501 63.0272 15.5704 62.6035 16.8763 62.3299C18.1821 62.0563 22 61.6414 22 61.6414C22 61.6414 18.1821 61.4119 16.8763 61.253" fill="#128BF5"/>
<path d="M11.7304 57.6605L10.75 57.8575L10.7502 57.8586L11.7304 57.6605ZM11 53L11.9969 52.9215L10.0031 52.9215L11 53ZM10.2586 57.6694L9.27873 57.4695L9.27837 57.4713L10.2586 57.6694ZM5.12374 61.2619L5.23791 62.2553L5.24452 62.2545L5.12374 61.2619ZM0 61.6414L-0.0600022 60.6432L-0.108025 62.6356L0 61.6414ZM10.1147 68.0408L11.1105 67.949L11.1104 67.9487L10.1147 68.0408ZM11 77L10.0058 77.1076L11.9945 77.1047L11 77ZM11.8853 68.0408L12.8809 68.1348L12.881 68.1331L11.8853 68.0408ZM22 61.6414L22.108 62.6356L22.06 60.6432L22 61.6414ZM16.9794 60.2596C16.3438 60.1865 15.3539 60.0412 14.4703 59.6105C13.6157 59.1939 12.9304 58.5503 12.7106 57.4624L10.7502 57.8586C11.1279 59.7277 12.3571 60.8054 13.594 61.4083C14.802 61.9971 16.0808 62.1695 16.751 62.2465L16.9794 60.2596ZM12.7108 57.4636C12.4164 55.998 12.2372 54.8536 12.132 54.08C12.0794 53.6932 12.0452 53.3991 12.0245 53.204C12.0141 53.1064 12.007 53.0336 12.0026 52.9862C12.0004 52.9625 11.9989 52.9452 11.998 52.9344C11.9975 52.929 11.9972 52.9252 11.997 52.9231C11.997 52.922 11.9969 52.9213 11.9969 52.921C11.9969 52.9209 11.9969 52.9209 11.9969 52.9209C11.9969 52.921 11.9969 52.921 11.9969 52.9211C11.9969 52.9212 11.9969 52.9213 11.9969 52.9213C11.9969 52.9214 11.9969 52.9215 11 53C10.0031 53.0785 10.0031 53.0786 10.0031 53.0788C10.0031 53.0788 10.0031 53.0789 10.0031 53.079C10.0031 53.0792 10.0032 53.0794 10.0032 53.0797C10.0032 53.0802 10.0033 53.0807 10.0033 53.0814C10.0034 53.0828 10.0036 53.0846 10.0038 53.0868C10.0041 53.0912 10.0046 53.0972 10.0053 53.1049C10.0066 53.1202 10.0085 53.1421 10.0111 53.1703C10.0163 53.2268 10.0243 53.3089 10.0357 53.4158C10.0585 53.6297 10.0949 53.943 10.1502 54.3496C10.2608 55.1626 10.4468 56.3485 10.75 57.8575L12.7108 57.4636ZM11 53C10.0031 52.9215 10.0031 52.9214 10.0031 52.9213C10.0031 52.9213 10.0031 52.9212 10.0031 52.9211C10.0031 52.921 10.0031 52.921 10.0031 52.9209C10.0031 52.9208 10.0031 52.9209 10.0031 52.921C10.0031 52.9212 10.0031 52.9219 10.003 52.923C10.0028 52.9251 10.0025 52.9289 10.002 52.9342C10.0011 52.945 9.99958 52.9622 9.99739 52.9858C9.993 53.0331 9.98591 53.1058 9.97545 53.2034C9.95452 53.3984 9.9201 53.6925 9.86685 54.0796C9.76035 54.8538 9.57854 55.9999 9.27873 57.4695L11.2384 57.8693C11.5472 56.3554 11.7361 55.1668 11.8482 54.3522C11.9042 53.9449 11.941 53.631 11.964 53.4167C11.9755 53.3096 11.9836 53.2273 11.9888 53.1707C11.9915 53.1424 11.9934 53.1205 11.9947 53.1051C11.9954 53.0974 11.9959 53.0913 11.9962 53.0869C11.9964 53.0847 11.9966 53.0829 11.9967 53.0815C11.9967 53.0808 11.9968 53.0802 11.9968 53.0797C11.9968 53.0794 11.9969 53.0792 11.9969 53.079C11.9969 53.0789 11.9969 53.0788 11.9969 53.0788C11.9969 53.0786 11.9969 53.0785 11 53ZM9.27837 57.4713C9.05865 58.5585 8.37413 59.1999 7.51935 59.6156C6.63489 60.0458 5.6452 60.191 5.00296 60.2692L5.24452 62.2545C5.90812 62.1738 7.18705 62.0013 8.39413 61.4142C9.6309 60.8126 10.8609 59.7372 11.2387 57.8675L9.27837 57.4713ZM5.00958 60.2684C4.38424 60.3403 3.12798 60.4337 2.00423 60.5102C1.44751 60.5481 0.931211 60.5814 0.554011 60.6052C0.365456 60.6171 0.211768 60.6266 0.105299 60.6331C0.0520672 60.6364 0.0106457 60.6389 -0.0174209 60.6406C-0.0314539 60.6415 -0.0421477 60.6421 -0.0493091 60.6426C-0.0528898 60.6428 -0.0555873 60.6429 -0.0573776 60.6431C-0.0582727 60.6431 -0.058941 60.6431 -0.0593794 60.6432C-0.0595986 60.6432 -0.0597604 60.6432 -0.0598643 60.6432C-0.0599163 60.6432 -0.0599507 60.6432 -0.0599768 60.6432C-0.0599967 60.6432 -0.0600022 60.6432 0 61.6414C0.0600022 62.6396 0.0600259 62.6396 0.0600641 62.6396C0.0600962 62.6396 0.0601489 62.6396 0.0602131 62.6396C0.0603415 62.6396 0.0605277 62.6396 0.0607715 62.6396C0.0612592 62.6395 0.061977 62.6395 0.0629219 62.6394C0.0648118 62.6393 0.0676103 62.6392 0.0712933 62.6389C0.0786592 62.6385 0.0895633 62.6378 0.103812 62.637C0.13231 62.6352 0.174189 62.6327 0.227903 62.6294C0.335327 62.6228 0.490115 62.6132 0.679893 62.6012C1.05936 62.5773 1.57915 62.5438 2.14014 62.5056C3.2518 62.4299 4.55741 62.3335 5.2379 62.2553L5.00958 60.2684ZM0 61.6414C-0.108025 62.6356 -0.108027 62.6356 -0.108015 62.6356C-0.107991 62.6356 -0.107964 62.6356 -0.107917 62.6356C-0.107823 62.6356 -0.107672 62.6356 -0.107462 62.6356C-0.107044 62.6357 -0.106396 62.6357 -0.105521 62.6358C-0.103772 62.636 -0.101116 62.6363 -0.0975769 62.6367C-0.0904991 62.6375 -0.0798914 62.6386 -0.0659466 62.6402C-0.0380563 62.6432 0.00317803 62.6478 0.056213 62.6537C0.162292 62.6654 0.31553 62.6826 0.503586 62.7041C0.879861 62.747 1.39474 62.807 1.94972 62.8755C3.07802 63.0147 4.31472 63.1821 4.91865 63.3086L5.32883 61.3512C4.62692 61.2041 3.30176 61.0272 2.19465 60.8906C1.63192 60.8211 1.11071 60.7604 0.730318 60.717C0.540041 60.6952 0.384803 60.6779 0.276989 60.6659C0.223078 60.6599 0.181012 60.6553 0.152338 60.6521C0.138001 60.6505 0.127011 60.6493 0.119561 60.6485C0.115836 60.6481 0.112996 60.6478 0.111066 60.6476C0.1101 60.6475 0.109362 60.6474 0.108855 60.6474C0.108601 60.6473 0.108404 60.6473 0.108266 60.6473C0.108197 60.6473 0.108137 60.6473 0.108102 60.6473C0.108056 60.6473 0.108025 60.6473 0 61.6414ZM4.91865 63.3086C5.62762 63.4572 6.52084 63.5975 7.33665 64.2061C8.09804 64.7741 8.90796 65.8531 9.11894 68.133L11.1104 67.9487C10.8566 65.2061 9.82399 63.5665 8.53257 62.603C7.29556 61.6802 5.9257 61.4762 5.32883 61.3512L4.91865 63.3086ZM9.11892 68.1327C9.36271 70.7755 9.58434 73.0184 9.74506 74.6009C9.82542 75.3921 9.89056 76.0184 9.93563 76.447C9.95816 76.6613 9.97568 76.8262 9.98758 76.9377C9.99353 76.9934 9.99807 77.0358 10.0011 77.0643C10.0027 77.0785 10.0038 77.0893 10.0046 77.0965C10.005 77.1002 10.0053 77.1029 10.0055 77.1047C10.0056 77.1057 10.0057 77.1064 10.0057 77.1068C10.0057 77.1071 10.0058 77.1073 10.0058 77.1074C10.0058 77.1075 10.0058 77.1075 10.0058 77.1075C10.0058 77.1076 10.0058 77.1076 11 77C11.9942 76.8924 11.9942 76.8924 11.9942 76.8924C11.9942 76.8923 11.9942 76.8923 11.9942 76.8923C11.9942 76.8922 11.9942 76.892 11.9941 76.8918C11.9941 76.8914 11.994 76.8907 11.9939 76.8899C11.9937 76.8882 11.9935 76.8855 11.9931 76.882C11.9923 76.875 11.9912 76.8645 11.9897 76.8505C11.9867 76.8225 11.9822 76.7806 11.9763 76.7254C11.9645 76.6149 11.9471 76.4511 11.9247 76.2378C11.8798 75.8114 11.8149 75.1875 11.7348 74.3988C11.5746 72.8213 11.3536 70.5846 11.1105 67.949L9.11892 68.1327ZM11 77C11.9945 77.1047 11.9945 77.1046 11.9945 77.1046C11.9945 77.1046 11.9945 77.1045 11.9945 77.1045C11.9945 77.1043 11.9946 77.1042 11.9946 77.1039C11.9946 77.1034 11.9947 77.1028 11.9948 77.1018C11.995 77.1 11.9953 77.0973 11.9957 77.0937C11.9964 77.0865 11.9975 77.0757 11.999 77.0615C12.002 77.0331 12.0064 76.9908 12.0122 76.9352C12.0238 76.8239 12.0409 76.6591 12.063 76.445C12.1072 76.0167 12.1713 75.3909 12.2509 74.6C12.4101 73.0183 12.6317 70.7764 12.8809 68.1348L10.8897 67.9469C10.641 70.5837 10.4198 72.8213 10.2609 74.3996C10.1815 75.1888 10.1176 75.813 10.0736 76.2398C10.0516 76.4532 10.0345 76.6173 10.023 76.7279C10.0172 76.7832 10.0129 76.8251 10.0099 76.8532C10.0084 76.8673 10.0073 76.8778 10.0066 76.8849C10.0062 76.8884 10.0059 76.891 10.0058 76.8928C10.0057 76.8937 10.0056 76.8943 10.0056 76.8947C10.0055 76.8949 10.0055 76.8951 10.0055 76.8952C10.0055 76.8953 10.0055 76.8953 10.0055 76.8953C10.0055 76.8953 10.0055 76.8953 11 77ZM12.881 68.1331C13.0919 65.8581 13.9016 64.7785 14.6639 64.209C15.48 63.5992 16.3745 63.4567 17.0813 63.3086L16.6712 61.3512C16.0721 61.4767 14.7036 61.6828 13.4669 62.6068C12.1764 63.5709 11.1435 65.2099 10.8896 67.9485L12.881 68.1331ZM17.0813 63.3086C17.6853 63.1821 18.922 63.0147 20.0503 62.8755C20.6053 62.807 21.1201 62.747 21.4964 62.7041C21.6845 62.6826 21.8377 62.6654 21.9438 62.6537C21.9968 62.6478 22.0381 62.6432 22.0659 62.6402C22.0799 62.6386 22.0905 62.6375 22.0976 62.6367C22.1011 62.6363 22.1038 62.636 22.1055 62.6358C22.1064 62.6357 22.107 62.6357 22.1075 62.6356C22.1077 62.6356 22.1078 62.6356 22.1079 62.6356C22.108 62.6356 22.108 62.6356 22.108 62.6356C22.108 62.6356 22.108 62.6356 22 61.6414C21.892 60.6473 21.8919 60.6473 21.8919 60.6473C21.8919 60.6473 21.8918 60.6473 21.8917 60.6473C21.8916 60.6473 21.8914 60.6473 21.8911 60.6474C21.8906 60.6474 21.8899 60.6475 21.8889 60.6476C21.887 60.6478 21.8842 60.6481 21.8804 60.6485C21.873 60.6493 21.862 60.6505 21.8477 60.6521C21.819 60.6553 21.7769 60.6599 21.723 60.6659C21.6152 60.6779 21.46 60.6952 21.2697 60.717C20.8893 60.7604 20.3681 60.8211 19.8054 60.8906C18.6982 61.0272 17.3731 61.2041 16.6712 61.3512L17.0813 63.3086ZM22 61.6414C22.06 60.6432 22.06 60.6432 22.06 60.6432C22.06 60.6432 22.0599 60.6432 22.0599 60.6432C22.0598 60.6432 22.0596 60.6432 22.0594 60.6432C22.059 60.6432 22.0583 60.6431 22.0574 60.6431C22.0556 60.6429 22.0529 60.6428 22.0493 60.6426C22.0422 60.6421 22.0315 60.6415 22.0175 60.6406C21.9895 60.6389 21.9481 60.6364 21.8949 60.6331C21.7885 60.6266 21.6348 60.617 21.4464 60.6051C21.0693 60.5812 20.5532 60.5476 19.9968 60.5092C18.8723 60.4315 17.619 60.336 16.997 60.2604L16.7555 62.2457C17.4393 62.3289 18.7479 62.4277 19.8589 62.5044C20.4201 62.5432 20.9401 62.577 21.3197 62.6011C21.5096 62.6131 21.6645 62.6227 21.7719 62.6293C21.8257 62.6327 21.8676 62.6352 21.8961 62.637C21.9104 62.6378 21.9213 62.6385 21.9287 62.6389C21.9324 62.6391 21.9352 62.6393 21.9371 62.6394C21.938 62.6395 21.9387 62.6395 21.9392 62.6396C21.9395 62.6396 21.9397 62.6396 21.9398 62.6396C21.9398 62.6396 21.9399 62.6396 21.9399 62.6396C21.94 62.6396 21.94 62.6396 22 61.6414Z" fill="#128BF5" mask="url(#path-1-inside-1_88_63)"/>
<path d="M11 0L11 60" stroke="#128BF5" stroke-width="0.5"/>
</svg>
