<svg width="30" height="266" viewBox="0 0 30 266" fill="none" xmlns="http://www.w3.org/2000/svg">
<path d="M22.562 244.047C20.8151 243.847 16.4922 243.197 15.6927 239.239C14.8933 235.257 14.7156 233 14.7156 233C14.7156 233 14.538 235.257 13.7237 239.25C12.9243 243.209 8.6014 243.847 6.85447 244.059C5.10754 244.26 0 244.567 0 244.567C0 244.567 5.10754 245.123 6.85447 245.489C8.6014 245.855 12.9095 246.411 13.5313 253.133C14.1827 260.199 14.7156 265.126 14.7156 265.126C14.7156 265.126 15.2338 260.199 15.9 253.133C16.5218 246.422 20.8299 245.855 22.5768 245.489C24.3237 245.123 29.4313 244.567 29.4313 244.567C29.4313 244.567 24.3237 244.26 22.5768 244.047" fill="#128BF5"/>
<path d="M15 0.0612793L15 237.055" stroke="#128BF5"/>
</svg>
