<?xml version="1.0" encoding="UTF-8"?>
<svg id="_레이어_2" data-name="레이어 2" xmlns="http://www.w3.org/2000/svg" viewBox="0 0 1160.19 139.96">
  <defs>
    <style>
      .cls-1 {
        fill: #f87513;
        stroke-width: 0px;
      }

      .cls-2 {
        opacity: .95;
      }
    </style>
  </defs>
  <g id="_레이어_1-2" data-name="레이어 1">
    <g class="cls-2">
      <path class="cls-1" d="M0,2.58h101.96v3.37c-3.76,0-6.77.33-9.01.99-2.25.66-4.04,1.75-5.37,3.27-1.34,1.52-2.43,3.54-3.28,6.05-.85,2.51-1.7,5.62-2.55,9.32l-2.91,11.89,16.57,65.22c.85-2.64,1.85-7,3-10.7,1.15-3.7,2.15-6.94,3-9.71,1.21-3.97,2.55-8.36,4.01-13.18,1.46-4.82,2.94-9.68,4.46-14.57,1.52-4.89,2.94-9.68,4.28-14.37,1.33-4.69,2.55-8.99,3.64-12.89,1.09-3.9,1.94-7.2,2.55-9.91.55-2.47,1.78-5.56.67-8.01-.67-1.48-2.23-2.44-3.98-2.9-1.27-.33-2.97-.5-4.25-.5h-5.37v-3.37h34.41v3.37c-3.64,0-6.43.1-8.38.3-2.03.21-4.25.76-5.53,2.19-1.14,1.27-1.5,2.9-2.03,4.39-1.07,2.98-2.04,5.98-2.99,8.99l-.91,2.97-33.86,114.59h-5.86l-15.69-65.02-15.41,65.02c-.73,0-3.01.03-3.8.1-.79.07-1.49.1-2.09.1L7.58,5.95H0v-3.37ZM64.39,68.99L46.54,5.95h-17.05l26.95,99.4,7.94-36.36ZM77.2,32.52c.12-.26.46-1.46,1-3.58.55-2.11,1.15-4.43,1.82-6.94.67-2.51,1.27-4.89,1.82-7.14.55-2.25.82-3.63.82-4.16,0-1.19-.27-2.08-.82-2.68-.55-.59-1.21-1.06-2-1.39-.79-.33-1.58-.53-2.37-.59-.79-.07-1.43-.1-1.91-.1h-5.28l6.92,26.57Z"/>
      <path class="cls-1" d="M190.99,0c6.92,0,13.26,2.02,19.03,6.05,6.44,4.5,10.71,10.83,14.27,17.1,3.83,6.73,6.85,13.69,8.87,20.96,2.3,8.26,3.46,16.55,3.46,24.88s-1.16,16.75-3.46,24.88c-2.31,8.13-5.55,15.4-9.74,21.81-4.19,6.41-7.64,11.6-13.41,15.56-5.77,3.97-12.11,5.95-19.03,5.95s-13.47-2.02-19.3-6.05c-6.49-4.49-10.53-10.9-14.16-17.14-3.78-6.51-6.94-13.11-8.9-20.19-2.31-8.33-3.46-16.78-3.46-25.38s1.24-16.32,3.73-24.38c2.49-8.06,5.89-16.29,10.2-22.63,4.31-6.34,7.79-11.5,13.5-15.46,5.7-3.96,11.83-5.95,18.39-5.95ZM191.35,4.45c-3.89,0-7.22,1.09-10.01,3.27-2.79,2.18-5.16,5.09-7.1,8.72-1.94,3.64-3.49,6.45-4.64,11.01-1.15,4.56-2.07,9.25-2.73,14.08-.67,4.83-1.12,9.58-1.37,14.27-.24,4.69-.36,8.89-.36,12.59s.09,8.1.27,12.79c.52,13.32,1.8,27.24,8.19,39.56,1.88,3.64,4.22,6.54,7.01,8.72,2.79,2.18,6.19,3.27,10.2,3.27s7.4-1.12,10.2-3.37c2.79-2.25,5.1-5.19,6.92-8.82,4.07-8.13,5.5-16.76,6.37-25.48.48-4.82.79-9.58.91-14.27.12-4.69.18-8.89.18-12.59,0-3.3-.09-7.2-.27-11.7-.18-4.49-.58-9.12-1.18-13.88-.61-4.76-1.43-9.52-2.46-14.27-1.03-4.76-2.46-7.7-4.28-11.41-1.82-3.7-4.01-6.71-6.55-9.02-2.55-2.31-5.64-3.47-9.29-3.47Z"/>
      <path class="cls-1" d="M279.47,131.44h12.63v3.37h-45.71v-3.37h13.06V5.95h-13.06v-3.37h55.66c4.01,0,7.95.53,11.83,1.59,3.88,1.06,7.31,2.81,10.29,5.25,2.97,2.45,5.4,5.68,7.28,9.71,1.88,4.03,2.82,9.09,2.82,15.17,0,4.63-.64,8.66-1.91,12.09-1.27,3.44-3,6.38-5.19,8.82-2.18,2.45-4.73,4.46-7.65,6.05-2.91,1.59-7,3.72-10.28,4.51,5.1,1.46,10.06,5.04,12.92,8.28,2.85,3.24,5.01,6.91,6.46,11,1.46,4.1,2.37,8.43,2.73,12.99s.61,8.89.73,12.98c.12,2.91.27,5.65.45,8.23.18,2.58.51,4.83,1,6.74.48,1.92,1.21,3.44,2.18,4.56.97,1.12,2.3,1.69,4.01,1.69,1.09,0,2.12-.16,3.1-.5.97-.33,1.94-.69,2.91-1.09.12,0,.24-.07.36-.2l1.09,2.97c-2.07,1.06-4.1,1.78-6.1,2.18s-4.04.59-6.1.59c-5.34,0-9.53-.86-12.56-2.58-5.46-3.09-8.34-8.52-9.67-13.77-1.5-5.93-1.52-12.31-1.98-18.35-.12-1.59-.24-3.24-.36-4.96-.12-1.72-.3-3.5-.55-5.35-.61-5.68-1.85-10.11-3.73-13.28-1.88-3.17-4.19-5.52-6.92-7.04-2.73-1.52-5.8-2.44-9.19-2.77-3.4-.33-6.92-.5-10.56-.5v63.83ZM279.47,5.95v58.48h5.83c3.4,0,6.76-.53,10.1-1.59,3.34-1.06,6.28-2.74,8.83-5.06,2.55-2.31,4.61-5.28,6.19-8.92,1.58-3.63,2.37-8.09,2.37-13.38,0-5.95-.73-10.83-2.18-14.67-1.46-3.83-3.46-6.84-6.01-9.02-2.55-2.18-5.52-3.7-8.92-4.56-3.4-.86-7.04-1.29-10.92-1.29h-5.28Z"/>
      <path class="cls-1" d="M445.33,89.71v45.09h-91.28v-3.37h12.99V5.95h-12.99v-3.37h47.83v3.37h-14.27v125.49h21.3c5.58,0,10.47-.3,14.66-.89,4.19-.6,8.08-1.64,10.87-4.29,2.79-2.64,4.48-7.24,5.88-12.66,1.39-5.42,2.09-14.23,2.09-23.88h2.91Z"/>
      <path class="cls-1" d="M452.37,2.58h39.21c8.49,0,16.57,1.06,24.22,3.17,7.65,2.12,14.35,5.72,20.12,10.8,5.76,5.09,10.35,11.93,13.75,20.52,3.4,8.59,5.1,19.3,5.1,32.12s-1.61,23.03-4.82,31.42c-3.22,8.39-7.59,15.1-13.11,20.12-5.52,5.03-11.96,8.62-19.3,10.8-7.35,2.18-15.2,3.27-23.58,3.27h-41.58v-3.37h11.9V6.15h-11.9v-3.57ZM487.27,6.15v125.29c8.74,0,14.56-1.29,20.51-3.87,5.95-2.58,10.74-6.51,14.38-11.8,3.64-5.28,4.73-11.93,6.31-19.92,1.58-7.99,2.37-17.41,2.37-28.25,0-8.85-.85-17.05-2.55-24.58-1.7-7.53-2.76-14.04-6.22-19.53-3.46-5.48-7.83-9.78-13.11-12.89-5.28-3.1-10.99-4.44-18.15-4.44l-3.54-.02Z"/>
      <path class="cls-1" d="M627.51,2.58h47.83v3.37h-13.18l26.23,89.18c3.88-12.55,6.23-21.25,8.9-30.11,2.67-8.85,4.92-16.32,6.74-22.4,1.82-6.08,3.25-10.93,4.28-14.57,1.03-3.63,1.79-6.51,2.28-8.62.48-2.11.79-3.67.91-4.66.12-.99.18-1.82.18-2.48,0-1.72-.46-3-1.37-3.87-.91-.86-2.07-1.49-3.46-1.88-1.4-.4-2.85-.6-4.37-.6h-5.98v-3.37h36.55v3.37h-1.46c-2.91,0-6.68.1-8.26.3-1.58.2-2.85.79-3.82,1.78-.97.99-1.82,2.55-2.55,4.66-.73,2.12-1.64,5.02-2.73,8.72l-35.69,118.55L638.69,5.95h-11.17v-3.37Z"/>
      <path class="cls-1" d="M745.13,2.58h48.38v3.37h-14.63v125.49h14.63v3.37h-48.38v-3.37h12.99V5.95h-12.99v-3.37Z"/>
      <path class="cls-1" d="M809.09,134.93h-.2c-.09,0-.19,0-.28,0-.25,0-.5,0-.75,0-.26,0-.52,0-.79,0-.19,0-.38,0-.57,0,0,0-.13,0-.13,0v-44.73h2.73c.48,6.74,1.46,11.04,2.91,16.52,1.46,5.49,3.55,10.21,6.28,14.17,5.11,7.42,14.99,11.74,25.03,11.74,3.52,0,6.71-.6,9.56-1.79,2.85-1.19,5.22-2.87,7.1-5.06,1.88-2.18,3.15-4.79,3.82-7.83.67-3.04.57-6.34-.27-9.91-.97-3.83-3.31-6.94-7.01-9.32-3.7-2.38-8.04-4.82-13.02-7.33-4.25-2.11-8.59-4.43-13.02-6.94-4.43-2.51-8.53-5.65-12.29-9.42-3.76-3.77-6.83-8.29-9.19-13.58-2.37-5.29-3.55-11.76-3.55-19.43,0-1.19.03-2.51.09-3.96.06-1.45.21-2.91.45-4.36,1.33-10.71,4.67-18.67,10.01-23.89,5.34-5.22,12.56-8.09,21.67-8.62,5.29-.31,10.18,1.1,14.52,3.56,2.48,1.4,5.11,3.01,7.15,4.84,2.06,1.85,3.76,2.78,5.1,2.78,1.7,0,2.73-.89,3.09-2.68.36-1.78,0-6.49,0-8.08h2.91v39.85h-3.1c-.85-5.81-2-8.57-3.46-13.4-1.46-4.82-3.37-8.92-5.74-12.29-2.37-3.37-5.25-5.98-8.65-7.83-3.4-1.85-7.46-2.78-12.2-2.78-3.16,0-6.19.47-9.1,1.39-2.91.93-5.43,2.35-7.56,4.26-2.13,1.92-3.76,4.4-4.92,7.43-1.16,3.04-1.61,6.68-1.37,10.9.24,3.57,1.09,6.64,2.55,9.22s3.34,4.83,5.64,6.74c2.3,1.92,4.92,3.6,7.83,5.06,2.91,1.45,5.95,2.84,9.1,4.16,4.01,1.72,8.04,3.67,12.11,5.85,4.06,2.18,7.83,4.89,11.29,8.13,3.46,3.24,6.37,7.17,8.74,11.8,2.37,4.63,3.85,10.24,4.46,16.85.24,6.08-.45,11.6-2.09,16.55-1.64,4.96-3.95,9.22-6.92,12.79-2.98,3.57-6.55,6.31-10.74,8.23-4.19,1.92-8.71,2.87-13.56,2.87s-8.92-.76-12.56-2.28c-2.43-1.01-4.95-2-7.23-3.25-3.13-1.71-6.54-4.76-10.51-4.76-.2,0-.41.02-.61.07s-.37.11-.53.2-.32.19-.47.31c-.15.12-.28.26-.4.41-.13.16-.24.32-.34.49-.11.18-.2.36-.29.55-.09.2-.17.4-.24.6s-.14.42-.19.63-.11.43-.15.65-.08.43-.11.65-.06.42-.08.63c-.02.2-.04.4-.05.6-.01.18-.02.37-.02.55,0,.3,0,.6.01.9.01.2.04.39.08.59Z"/>
      <path class="cls-1" d="M886.78,2.58h48.38v3.37h-14.63v125.49h14.63v3.37h-48.38v-3.37h12.99V5.95h-12.99v-3.37Z"/>
      <path class="cls-1" d="M993.53,0c6.92,0,13.26,2.02,19.03,6.05,5.76,4.03,10.74,9.32,14.93,15.86,4.19,6.54,7.43,13.95,9.74,22.2,2.3,8.26,3.46,16.55,3.46,24.88s-1.16,16.75-3.46,24.88c-2.31,8.13-5.55,15.4-9.74,21.81-4.19,6.41-9.17,11.6-14.93,15.56-5.77,3.97-12.11,5.95-19.03,5.95s-13.47-2.02-19.3-6.05c-5.83-4.03-10.8-9.35-14.93-15.96-4.13-6.61-7.35-14.08-9.65-22.4-2.31-8.33-3.46-16.78-3.46-25.38s1.24-16.32,3.73-24.38c2.49-8.06,5.89-15.26,10.2-21.61,4.31-6.34,9.31-11.5,15.02-15.46,5.7-3.96,11.83-5.95,18.39-5.95ZM993.9,3.17c-3.89,0-8.75,1.09-11.54,3.27-2.79,2.18-5.16,5.09-7.1,8.72-1.94,3.64-3.49,7.73-4.64,12.29-1.15,4.56-2.07,9.25-2.73,14.08-.67,4.83-1.12,9.58-1.37,14.27-.24,4.69-.36,8.89-.36,12.59s.09,8.1.27,12.79c.18,4.69.57,9.45,1.18,14.27.61,4.83,1.46,9.55,2.55,14.18,1.09,4.63,2.58,8.76,4.46,12.39,1.88,3.64,4.22,6.54,7.01,8.72,2.79,2.18,7.71,3.27,11.72,3.27s8.93-1.12,11.72-3.37c2.79-2.25,5.1-5.19,6.92-8.82,1.82-3.63,3.21-7.8,4.19-12.49.97-4.69,1.7-9.45,2.18-14.27.48-4.82.79-9.58.91-14.27.12-4.69.18-8.89.18-12.59,0-3.3-.09-7.2-.27-11.7-.18-4.49-.58-9.12-1.18-13.88-.61-4.76-1.43-9.52-2.46-14.27-1.03-4.76-2.46-8.99-4.28-12.69-1.82-3.7-4.01-6.71-6.55-9.02-2.55-2.31-7.17-3.47-10.81-3.47Z"/>
      <path class="cls-1" d="M1049.36,131.44c3.64,0,8.01-.1,10.08-.3,2.06-.2,3.55-.86,4.46-1.98.91-1.12,1.46-2.84,1.64-5.15.18-2.31.27-5.65.27-10.01V5.95s-16.45,0-16.45,0v-3.37h39.64l51.28,91.8V22.4c0-4.23-.09-7.47-.27-9.71-.18-2.25-.28-3.87-1.01-4.86s-1.79-1.55-3.19-1.69c-1.4-.13-3.67-.2-6.09-.2h-5.53v-3.37h36v3.37h-5.71c-2.43,0-4.37.07-5.83.2-1.46.13-2.55.69-3.28,1.69-.73.99-1.18,2.61-1.37,4.86-.18,2.25-.27,5.49-.27,9.71v113.4h-10.63l-63.84-116.48v91.3c0,5.29.06,9.35.18,12.19.12,2.84.64,4.89,1.55,6.15.91,1.26,2.4,1.98,4.46,2.18,2.06.2,6.56.3,10.44.3v3.37h-36.55v-3.37Z"/>
    </g>
  </g>
</svg>